<?xml version="1.0" encoding="UTF-8" standalone="no"?>
<svg
   height="24px"
   viewBox="0 -960 960 960"
   width="24px"
   fill="#1f1f1f"
   version="1.1"
   id="svg1"
   sodipodi:docname="published_with_changes_24dp_1F1F1F_FILL0_wght400_GRAD0_opsz24.svg"
   inkscape:version="1.4 (86a8ad7, 2024-10-11)"
   xmlns:inkscape="http://www.inkscape.org/namespaces/inkscape"
   xmlns:sodipodi="http://sodipodi.sourceforge.net/DTD/sodipodi-0.dtd"
   xmlns="http://www.w3.org/2000/svg"
   xmlns:svg="http://www.w3.org/2000/svg">
  <defs
     id="defs1" />
  <sodipodi:namedview
     id="namedview1"
     pagecolor="#ffffff"
     bordercolor="#000000"
     borderopacity="0.25"
     inkscape:showpageshadow="2"
     inkscape:pageopacity="0.0"
     inkscape:pagecheckerboard="0"
     inkscape:deskcolor="#d1d1d1"
     inkscape:zoom="33.625"
     inkscape:cx="12"
     inkscape:cy="12"
     inkscape:window-width="1920"
     inkscape:window-height="1009"
     inkscape:window-x="1912"
     inkscape:window-y="-8"
     inkscape:window-maximized="1"
     inkscape:current-layer="svg1" />
  <path
     d="M440-82q-76-8-141.5-41.5t-114-87Q136-264 108-333T80-480q0-91 36.5-168T216-780h-96v-80h240v240h-80v-109q-55 44-87.5 108.5T160-480q0 123 80.5 212.5T440-163v81Zm-17-214L254-466l56-56 113 113 227-227 56 57-283 283Zm177 196v-240h80v109q55-45 87.5-109T800-480q0-123-80.5-212.5T520-797v-81q152 15 256 128t104 270q0 91-36.5 168T744-180h96v80H600Z"
     id="path1"
     style="fill:#f9f9f9" />
</svg>
