<?xml version="1.0" encoding="UTF-8" standalone="no"?>
<!-- Created with Inkscape (http://www.inkscape.org/) -->

<svg
   width="100"
   height="99.999977"
   viewBox="0 0 26.458332 26.458327"
   version="1.1"
   id="svg1343"
   inkscape:version="1.1.2 (0a00cf5339, 2022-02-04)"
   sodipodi:docname="favicon.svg"
   xmlns:inkscape="http://www.inkscape.org/namespaces/inkscape"
   xmlns:sodipodi="http://sodipodi.sourceforge.net/DTD/sodipodi-0.dtd"
   xmlns:xlink="http://www.w3.org/1999/xlink"
   xmlns="http://www.w3.org/2000/svg"
   xmlns:svg="http://www.w3.org/2000/svg">
  <sodipodi:namedview
     id="namedview1345"
     pagecolor="#ffffff"
     bordercolor="#666666"
     borderopacity="1.0"
     inkscape:pageshadow="2"
     inkscape:pageopacity="0.0"
     inkscape:pagecheckerboard="0"
     inkscape:document-units="px"
     showgrid="false"
     units="px"
     fit-margin-top="0"
     fit-margin-left="0"
     fit-margin-right="0"
     fit-margin-bottom="0"
     inkscape:zoom="1.6856878"
     inkscape:cx="232.84264"
     inkscape:cy="45.085454"
     inkscape:window-width="3368"
     inkscape:window-height="1403"
     inkscape:window-x="1672"
     inkscape:window-y="0"
     inkscape:window-maximized="1"
     inkscape:current-layer="layer1" />
  <defs
     id="defs1340">
    <linearGradient
       inkscape:collect="always"
       xlink:href="#grad11"
       id="linearGradient21882"
       gradientUnits="userSpaceOnUse"
       gradientTransform="scale(1.0598128,0.94356283)"
       x1="261.27631"
       y1="364.20279"
       x2="261.27631"
       y2="419.8215" />
    <linearGradient
       id="grad11">
      <stop
         offset="0%"
         stop-color="#ececed"
         stop-opacity="1.0000"
         id="stop4694" />
      <stop
         offset="100%"
         stop-color="#6e6f70"
         stop-opacity="1.0000"
         id="stop4696" />
    </linearGradient>
    <linearGradient
       inkscape:collect="always"
       xlink:href="#grad11"
       id="linearGradient21884"
       gradientUnits="userSpaceOnUse"
       gradientTransform="scale(1.0707303,0.933942)"
       x1="254.42758"
       y1="376.23254"
       x2="254.42758"
       y2="430.59222" />
    <linearGradient
       inkscape:collect="always"
       xlink:href="#grad11"
       id="linearGradient21886"
       gradientUnits="userSpaceOnUse"
       gradientTransform="scale(1.0586983,0.94455617)"
       x1="135.15034"
       y1="210.49312"
       x2="135.15034"
       y2="266.54343" />
    <linearGradient
       inkscape:collect="always"
       xlink:href="#grad11"
       id="linearGradient21888"
       gradientUnits="userSpaceOnUse"
       gradientTransform="scale(1.0773519,0.9282018)"
       x1="128.55852"
       y1="220.89571"
       x2="128.55852"
       y2="277.05118" />
    <radialGradient
       inkscape:collect="always"
       xlink:href="#grad19"
       id="radialGradient21890"
       gradientUnits="userSpaceOnUse"
       cx="263.51978"
       cy="325.93018"
       fx="263.51978"
       fy="325.93018"
       r="243.83649" />
    <radialGradient
       id="grad19"
       cx="263.51978"
       cy="325.93018"
       r="243.83649"
       fx="263.51978"
       fy="325.93018"
       gradientUnits="userSpaceOnUse">
      <stop
         offset="0%"
         stop-color="#102a83"
         stop-opacity="1.0000"
         id="stop4738" />
      <stop
         offset="100%"
         stop-color="#009ee0"
         stop-opacity="1.0000"
         id="stop4740" />
    </radialGradient>
    <radialGradient
       id="radialGradient2280"
       cx="263.51978"
       cy="325.93018"
       r="243.83649"
       fx="263.51978"
       fy="325.93018"
       gradientUnits="userSpaceOnUse">
      <stop
         offset="0%"
         stop-color="#102a83"
         stop-opacity="1.0000"
         id="stop2276" />
      <stop
         offset="100%"
         stop-color="#009ee0"
         stop-opacity="1.0000"
         id="stop2278" />
    </radialGradient>
  </defs>
  <g
     inkscape:label="Layer 1"
     inkscape:groupmode="layer"
     id="layer1"
     transform="translate(5.612932,-57.68661)">
    <g
       id="g2302"
       style="stroke-width:2.43837"
       transform="matrix(0.10850849,0,0,0.10850849,-18.199776,38.327711)">
      <defs
         id="defs2232">
        <linearGradient
           id="linearGradient1557">
          <stop
             offset="0%"
             stop-color="#ececed"
             stop-opacity="1.0000"
             id="stop2224" />
          <stop
             offset="100%"
             stop-color="#6e6f70"
             stop-opacity="1.0000"
             id="stop2226" />
        </linearGradient>
        <linearGradient
           xlink:href="#grad11"
           id="linearGradient1559"
           x1="261.27631"
           y1="364.20279"
           x2="261.27631"
           y2="419.8215"
           gradientTransform="scale(1.0598128,0.94356283)"
           gradientUnits="userSpaceOnUse" />
      </defs>
      <path
         d="m 334.9447,351.275 c -19.0533,13.5187 -34.8879,30.8425 -51.6881,43.4877 -1.8455,1.389 -4.15,2.1005 -5.6741,0.2469 v 0 c -1.5242,-1.8537 -0.2518,-3.4455 1.5598,-5.0049 7.5134,-6.4672 38.3724,-27.5331 54.6114,-46.0914 1.5618,-1.785 3.1404,5.9785 1.191,7.3617 z"
         style="fill:url(#linearGradient21882);stroke-width:2.43837"
         id="path2234" />
      <defs
         id="defs2244">
        <linearGradient
           id="linearGradient1561">
          <stop
             offset="0%"
             stop-color="#ececed"
             stop-opacity="1.0000"
             id="stop2236" />
          <stop
             offset="100%"
             stop-color="#6e6f70"
             stop-opacity="1.0000"
             id="stop2238" />
        </linearGradient>
        <linearGradient
           xlink:href="#grad11"
           id="linearGradient1563"
           x1="254.42758"
           y1="376.23254"
           x2="254.42758"
           y2="430.59222"
           gradientTransform="scale(1.0707303,0.933942)"
           gradientUnits="userSpaceOnUse" />
      </defs>
      <path
         d="m 273.1591,395.2288 50.9474,-42.8619 c 1.7789,-1.4966 4.4588,-1.2657 5.9554,0.5133 v 0 c 1.4966,1.779 -0.252,2.7518 -2.0309,4.2483 -7.3777,6.2068 -38.9783,32.1683 -53.1266,44.7905 -1.7346,1.5473 -3.5243,-5.1935 -1.7453,-6.6902 z"
         style="fill:url(#linearGradient21884);stroke-width:2.43837"
         id="path2246" />
      <path
         d="m 193.121,396.5755 h -18.0599 c -18.3658,0 -33.3923,-15.0265 -33.3923,-33.3924 v -27.7449 z"
         style="fill:#dadbdc;fill-rule:evenodd;stroke-width:2.43837"
         id="path2248" />
      <path
         d="m 282.7129,204.0792 h 18.0598 c 18.3659,0 33.3924,15.0265 33.3924,33.3924 v 27.7449 z"
         style="fill:#dadbdc;fill-rule:evenodd;stroke-width:2.43837"
         id="path2250" />
      <defs
         id="defs2260">
        <linearGradient
           id="linearGradient1565">
          <stop
             offset="0%"
             stop-color="#ececed"
             stop-opacity="1.0000"
             id="stop2252" />
          <stop
             offset="100%"
             stop-color="#6e6f70"
             stop-opacity="1.0000"
             id="stop2254" />
        </linearGradient>
        <linearGradient
           xlink:href="#grad11"
           id="linearGradient1567"
           x1="135.15034"
           y1="210.49312"
           x2="135.15034"
           y2="266.54343"
           gradientTransform="scale(1.0586983,0.94455617)"
           gradientUnits="userSpaceOnUse" />
      </defs>
      <path
         d="m 201.7104,206.076 -51.8835,44.6603 c -1.8117,1.5594 -4.5408,1.3188 -6.065,-0.5349 v 0 c -1.5241,-1.8536 -0.2517,-3.4455 1.5598,-5.0049 7.5134,-6.4672 38.3724,-27.533 54.6114,-46.0914 1.5619,-1.7851 3.589,5.4115 1.7773,6.9709 z"
         style="fill:url(#linearGradient21886);stroke-width:2.43837"
         id="path2262" />
      <defs
         id="defs2272">
        <linearGradient
           id="RESERVED_FOR_INKSCAPE_DUPLICATE_DEF_000000000">
          <stop
             offset="0%"
             stop-color="#ececed"
             stop-opacity="1.0000"
             id="stop2264" />
          <stop
             offset="100%"
             stop-color="#6e6f70"
             stop-opacity="1.0000"
             id="stop2266" />
        </linearGradient>
        <linearGradient
           xlink:href="#grad11"
           id="RESERVED_FOR_INKSCAPE_DUPLICATE_DEF_000000001"
           x1="128.55852"
           y1="220.89571"
           x2="128.55852"
           y2="277.05118"
           gradientTransform="scale(1.0773519,0.9282018)"
           gradientUnits="userSpaceOnUse" />
      </defs>
      <path
         d="m 139.3608,250.2114 52.4882,-44.1582 c 1.8327,-1.5419 4.5937,-1.304 6.1356,0.5288 v 0 c 1.5419,1.8328 1.3039,4.5938 -0.5289,6.1356 -7.6009,6.3946 -36.6395,38.4178 -56.2968,44.3863 -2.2916,0.6957 -3.6309,-5.3506 -1.7981,-6.8925 z"
         style="fill:url(#linearGradient21888);stroke-width:2.43837"
         id="path2274" />
      <defs
         id="defs2282">
        <radialGradient
           id="radialGradient1606"
           cx="263.51978"
           cy="325.93018"
           r="243.83649"
           fx="263.51978"
           fy="325.93018"
           gradientUnits="userSpaceOnUse">
          <stop
             offset="0%"
             stop-color="#102a83"
             stop-opacity="1.0000"
             id="stop1602" />
          <stop
             offset="100%"
             stop-color="#009ee0"
             stop-opacity="1.0000"
             id="stop1604" />
        </radialGradient>
      </defs>
      <path
         d="m 271.084,190.2611 80.9464,96.1835 c 11.8256,14.0517 10.0043,35.2242 -4.0473,47.0498 l -96.1835,80.9461 c -14.0516,11.8259 -35.2239,10.0046 -47.0497,-4.0473 L 123.8037,314.21 c -11.8258,-14.0516 -10.0046,-35.2242 4.0473,-47.0497 l 96.1832,-80.9462 c 14.0517,-11.8258 35.2242,-10.0046 47.0498,4.047 z"
         style="fill:url(#radialGradient21890);stroke-width:2.43837"
         id="path2284" />
      <g
         id="g2286"
         style="stroke-width:2.43837" />
      <path
         d="m 166.5408,250.5573 h -27.745 l 61.1373,-51.4521 v 18.0598 c 0,18.3658 -15.0264,33.3923 -33.3923,33.3923 z"
         style="fill:#dadbdc;fill-rule:evenodd;stroke-width:2.43837"
         id="path2288" />
      <g
         id="g2290"
         style="stroke-width:2.43837" />
      <path
         d="m 274.9955,401.98 v -18.0598 c 0,-18.3658 15.0265,-33.3923 33.3923,-33.3923 h 27.745 z"
         style="fill:#dadbdc;fill-rule:evenodd;stroke-width:2.43837"
         id="path2292" />
      <g
         id="g2294"
         style="stroke-width:2.43837" />
      <g
         id="g2298"
         style="stroke-width:2.43837">
        <path
           d="m 278.5181,310.4855 c -16.2201,0 -32.4405,0 -48.6607,0 -9.9479,0 -18.0082,-7.8789 -18.1989,-17.8248 l -0.0479,-2.4922 h 69.8133 c 6.6515,0 13.5247,3.507 16.6646,9.5145 1.438,2.7513 1.95,5.7946 1.5109,8.8673 -0.8674,6.0724 -2.8043,11.9206 -5.6889,17.3316 -10.8031,20.2669 -33.0216,31.8677 -55.6478,31.8677 -22.8027,0 -44.9342,-11.6844 -55.8133,-32.0803 -4.176,-7.8293 -6.3683,-16.4647 -6.3683,-25.3423 0,-8.877 2.192,-17.5119 6.3675,-25.3406 10.8788,-20.3967 33.0108,-32.0816 55.8141,-32.0816 23.2614,0 45.5072,12.0356 56.1722,33.01 l 0.991,1.9491 -1.8266,1.2019 c -7.3352,4.8262 -17.3846,3.719 -23.463,-2.6524 -8.2099,-8.6054 -20.0568,-13.1919 -31.8736,-13.1919 -15.9565,0 -32.0051,8.3163 -38.8139,23.1908 -2.0061,4.3824 -3.0507,9.0933 -3.0507,13.9147 0,4.7279 1.0046,9.3546 2.9296,13.6707 6.7162,15.057 22.8388,23.599 38.935,23.599 16.3214,0 32.7776,-8.9269 39.2417,-24.3635 0.3773,-0.9009 0.7161,-1.8179 1.0137,-2.7477 z"
           style="fill:#ffffff;fill-rule:evenodd;stroke-width:2.43837"
           id="path2296" />
      </g>
      <path
         d="m 297.1788,308.2044 c 1.2669,-8.8687 -7.0569,-15.5906 -15.7548,-15.5906 h -67.321 c 0.164,8.5339 7.0567,15.4266 15.7546,15.4266 7.2209,0 44.0173,0 49.5971,0 0.9847,0 1.9693,0.8204 1.8053,1.8051 -4.7593,17.2317 -22.3193,30.1965 -42.9972,30.1965 -24.4524,0 -44.3099,-17.8882 -44.3099,-39.715 0,-21.8266 19.8575,-39.5508 44.3099,-39.5508 13.129,0 25.4373,5.2516 33.6427,13.9495 5.4158,5.5798 14.1137,6.4005 20.35,2.2975 -9.8468,-19.365 -30.689,-31.6733 -53.9927,-31.6733 -32.9863,0 -59.7365,24.6166 -59.7365,54.9771 0,30.3607 26.7502,54.9773 59.7365,54.9773 29.8682,0 55.0956,-20.3563 58.916,-47.0999 z"
         style="fill:#ffffff;fill-rule:evenodd;stroke-width:2.43837"
         id="path2300" />
    </g>
  </g>
</svg>
