<?xml version="1.0" encoding="UTF-8" standalone="no"?>
<!-- Created with Inkscape (http://www.inkscape.org/) -->

<svg
   width="10.8"
   height="12"
   viewBox="0 0 2.8575001 3.1750001"
   version="1.1"
   id="svg1"
   sodipodi:docname="fentr-payment-icon.svg"
   inkscape:version="1.4 (86a8ad7, 2024-10-11)"
   xmlns:inkscape="http://www.inkscape.org/namespaces/inkscape"
   xmlns:sodipodi="http://sodipodi.sourceforge.net/DTD/sodipodi-0.dtd"
   xmlns="http://www.w3.org/2000/svg"
   xmlns:svg="http://www.w3.org/2000/svg">
  <sodipodi:namedview
     id="namedview1"
     pagecolor="#ffffff"
     bordercolor="#000000"
     borderopacity="0.25"
     inkscape:showpageshadow="2"
     inkscape:pageopacity="0.0"
     inkscape:pagecheckerboard="0"
     inkscape:deskcolor="#d1d1d1"
     inkscape:document-units="px"
     inkscape:zoom="12.205488"
     inkscape:cx="10.077434"
     inkscape:cy="9.1352349"
     inkscape:window-width="1584"
     inkscape:window-height="861"
     inkscape:window-x="0"
     inkscape:window-y="0"
     inkscape:window-maximized="0"
     inkscape:current-layer="layer1" />
  <defs
     id="defs1" />
  <g
     inkscape:label="Layer 1"
     inkscape:groupmode="layer"
     id="layer1"
     transform="translate(-80.375945,-183.98722)">
    <g
       style="display:inline;fill:#808080;fill-opacity:1"
       id="g182"
       transform="matrix(0.00396875,0,0,-0.00396875,79.899695,183.66972)">
      <path
         d="m 480,-520 c -33.33333,0 -61.66667,-11.66667 -85,-35 -23.33333,-23.33333 -35,-51.66667 -35,-85 0,-33.33333 11.66667,-61.66667 35,-85 23.33333,-23.33333 51.66667,-35 85,-35 33.33333,0 61.66667,11.66667 85,35 23.33333,23.33333 35,51.66667 35,85 0,33.33333 -11.66667,61.66667 -35,85 -23.33333,23.33333 -51.66667,35 -85,35 z m -280,120 c -22,0 -40.83333,-7.83333 -56.5,-23.5 C 127.83333,-439.16667 120,-458 120,-480 v -320 c 0,-22 7.83333,-40.83333 23.5,-56.5 15.66667,-15.66667 34.5,-23.5 56.5,-23.5 h 560 c 22,0 40.83333,7.83333 56.5,23.5 15.66667,15.66667 23.5,34.5 23.5,56.5 v 320 c 0,22 -7.83333,40.83333 -23.5,56.5 -15.66667,15.66667 -34.5,23.5 -56.5,23.5 z m 80,-80 h 400 c 0,-22 7.83333,-40.83333 23.5,-56.5 15.66667,-15.66667 34.5,-23.5 56.5,-23.5 v -160 c -22,0 -40.83333,-7.83333 -56.5,-23.5 C 687.83333,-759.16667 680,-778 680,-800 H 280 c 0,22 -7.83333,40.83333 -23.5,56.5 -15.66667,15.66667 -34.5,23.5 -56.5,23.5 v 160 c 22,0 40.83333,7.83333 56.5,23.5 15.66667,15.66667 23.5,34.5 23.5,56.5 z m -80,0 v -320 z m 280,120 160,160 -56,56 -64,-64 v 128 h -80 v -128 l -64,64 -56,-56 z"
         id="path1-6"
         style="fill:#808080;fill-opacity:1"
         sodipodi:nodetypes="ssssssssssssssssssssssccsccsccsccscccccccccccccc" />
    </g>
  </g>
</svg>
