<?xml version="1.0" encoding="UTF-8" standalone="no"?>
<!-- Created with Inkscape (http://www.inkscape.org/) -->

<svg
   width="3.1749952mm"
   height="3.968744mm"
   viewBox="0 0 3.1749952 3.968744"
   version="1.1"
   id="svg1"
   inkscape:version="1.4 (86a8ad7, 2024-10-11)"
   sodipodi:docname="location-icon.svg"
   xmlns:inkscape="http://www.inkscape.org/namespaces/inkscape"
   xmlns:sodipodi="http://sodipodi.sourceforge.net/DTD/sodipodi-0.dtd"
   xmlns="http://www.w3.org/2000/svg"
   xmlns:svg="http://www.w3.org/2000/svg">
  <sodipodi:namedview
     id="namedview1"
     pagecolor="#ffffff"
     bordercolor="#000000"
     borderopacity="0.25"
     inkscape:showpageshadow="2"
     inkscape:pageopacity="0.0"
     inkscape:pagecheckerboard="0"
     inkscape:deskcolor="#d1d1d1"
     inkscape:document-units="mm"
     inkscape:zoom="12.205488"
     inkscape:cx="39.654292"
     inkscape:cy="3.9736222"
     inkscape:window-width="3440"
     inkscape:window-height="1369"
     inkscape:window-x="1592"
     inkscape:window-y="-8"
     inkscape:window-maximized="1"
     inkscape:current-layer="layer1" />
  <defs
     id="defs1" />
  <g
     inkscape:label="Layer 1"
     inkscape:groupmode="layer"
     id="layer1"
     transform="translate(-103.1875,-146.57917)">
    <g
       style="display:inline;fill:#808080;fill-opacity:1"
       id="g123"
       transform="matrix(0.00496093,0,0,0.00496093,102.39375,150.94479)">
      <path
         d="m 480,-480 q 33,0 56.5,-23.5 Q 560,-527 560,-560 560,-593 536.5,-616.5 513,-640 480,-640 q -33,0 -56.5,23.5 -23.5,23.5 -23.5,56.5 0,33 23.5,56.5 23.5,23.5 56.5,23.5 z m 0,294 Q 602,-298 661,-389.5 720,-481 720,-552 720,-661 650.5,-730.5 581,-800 480,-800 379,-800 309.5,-730.5 240,-661 240,-552 q 0,71 59,162.5 59,91.5 181,203.5 z m 0,106 Q 319,-217 239.5,-334.5 160,-452 160,-552 q 0,-150 96.5,-239 96.5,-89 223.5,-89 127,0 223.5,89 96.5,89 96.5,239 0,100 -79.5,217.5 Q 641,-217 480,-80 Z m 0,-480 z"
         id="path1-763"
         style="fill:#808080;fill-opacity:1" />
    </g>
  </g>
</svg>
