<?xml version="1.0" encoding="UTF-8" standalone="no"?>
<!-- Created with Inkscape (http://www.inkscape.org/) -->

<svg
   width="2.5533311mm"
   height="3.1739988mm"
   viewBox="0 0 2.5533311 3.1739988"
   version="1.1"
   id="svg1"
   inkscape:version="1.4 (86a8ad7, 2024-10-11)"
   sodipodi:docname="lock-password-icon.svg"
   xmlns:inkscape="http://www.inkscape.org/namespaces/inkscape"
   xmlns:sodipodi="http://sodipodi.sourceforge.net/DTD/sodipodi-0.dtd"
   xmlns="http://www.w3.org/2000/svg"
   xmlns:svg="http://www.w3.org/2000/svg">
  <sodipodi:namedview
     id="namedview1"
     pagecolor="#ffffff"
     bordercolor="#000000"
     borderopacity="0.25"
     inkscape:showpageshadow="2"
     inkscape:pageopacity="0.0"
     inkscape:pagecheckerboard="0"
     inkscape:deskcolor="#d1d1d1"
     inkscape:document-units="mm"
     inkscape:zoom="13.525818"
     inkscape:cx="5.5449512"
     inkscape:cy="2.0331488"
     inkscape:window-width="1600"
     inkscape:window-height="829"
     inkscape:window-x="-8"
     inkscape:window-y="-8"
     inkscape:window-maximized="1"
     inkscape:current-layer="layer1" />
  <defs
     id="defs1" />
  <g
     inkscape:label="Layer 1"
     inkscape:groupmode="layer"
     id="layer1"
     transform="translate(-98.689582,-139.70001)">
    <g
       style="display:inline;fill:#808080;fill-opacity:1"
       id="g119"
       transform="matrix(0.00398958,0,0,0.00377857,98.051249,143.17629)">
      <path
         d="m 240,-80 q -33,0 -56.5,-23.5 Q 160,-127 160,-160 v -400 q 0,-33 23.5,-56.5 Q 207,-640 240,-640 h 40 v -80 q 0,-83 58.5,-141.5 Q 397,-920 480,-920 q 83,0 141.5,58.5 Q 680,-803 680,-720 v 80 h 40 q 33,0 56.5,23.5 23.5,23.5 23.5,56.5 v 400 q 0,33 -23.5,56.5 Q 753,-80 720,-80 Z m 0,-80 H 720 V -560 H 240 Z m 240,-120 q 33,0 56.5,-23.5 Q 560,-327 560,-360 560,-393 536.5,-416.5 513,-440 480,-440 q -33,0 -56.5,23.5 -23.5,23.5 -23.5,56.5 0,33 23.5,56.5 Q 447,-280 480,-280 Z M 360,-640 h 240 v -80 q 0,-50 -35,-85 -35,-35 -85,-35 -50,0 -85,35 -35,35 -35,85 z m -120,480 v -400 z"
         id="path1-46"
         style="fill:#808080;fill-opacity:1" />
    </g>
  </g>
</svg>
