<?xml version="1.0" encoding="UTF-8" standalone="no"?>
<!-- Created with Inkscape (http://www.inkscape.org/) -->

<svg
   width="118.79522"
   height="80.898232"
   viewBox="0 0 31.431234 21.404323"
   version="1.1"
   id="svg1"
   inkscape:version="1.4 (86a8ad7, 2024-10-11)"
   sodipodi:docname="maruzi_logo.svg"
   xmlns:inkscape="http://www.inkscape.org/namespaces/inkscape"
   xmlns:sodipodi="http://sodipodi.sourceforge.net/DTD/sodipodi-0.dtd"
   xmlns="http://www.w3.org/2000/svg"
   xmlns:svg="http://www.w3.org/2000/svg">
  <sodipodi:namedview
     id="namedview1"
     pagecolor="#ffffff"
     bordercolor="#000000"
     borderopacity="0.25"
     inkscape:showpageshadow="2"
     inkscape:pageopacity="0.0"
     inkscape:pagecheckerboard="0"
     inkscape:deskcolor="#d1d1d1"
     inkscape:document-units="px"
     inkscape:zoom="4.2368967"
     inkscape:cx="117.30284"
     inkscape:cy="42.129892"
     inkscape:window-width="3440"
     inkscape:window-height="1369"
     inkscape:window-x="1592"
     inkscape:window-y="-8"
     inkscape:window-maximized="1"
     inkscape:current-layer="layer1" />
  <defs
     id="defs1">
    <clipPath
       clipPathUnits="userSpaceOnUse"
       id="clipPath6-4">
      <path
         d="M 0,595.28 H 841.89 V 0 H 0 Z"
         transform="translate(-425.47411,-369.46631)"
         id="path6-2" />
    </clipPath>
    <clipPath
       clipPathUnits="userSpaceOnUse"
       id="clipPath8-3">
      <path
         d="M 0,595.28 H 841.89 V 0 H 0 Z"
         transform="translate(-383.22661,-285.7221)"
         id="path8-8-2" />
    </clipPath>
    <clipPath
       clipPathUnits="userSpaceOnUse"
       id="clipPath10-2">
      <path
         d="M 0,595.28 H 841.89 V 0 H 0 Z"
         transform="translate(-473.25151,-300.00141)"
         id="path10-8-1" />
    </clipPath>
    <clipPath
       clipPathUnits="userSpaceOnUse"
       id="clipPath12-6">
      <path
         d="M 0,595.28 H 841.89 V 0 H 0 Z"
         transform="translate(-343.58891,-299.90771)"
         id="path12-8" />
    </clipPath>
    <clipPath
       clipPathUnits="userSpaceOnUse"
       id="clipPath14-5">
      <path
         d="M 0,595.28 H 841.89 V 0 H 0 Z"
         transform="translate(-412.38531,-270.62841)"
         id="path14-7" />
    </clipPath>
    <clipPath
       clipPathUnits="userSpaceOnUse"
       id="clipPath16-6">
      <path
         d="M 0,595.28 H 841.89 V 0 H 0 Z"
         transform="translate(-518.22361,-298.5171)"
         id="path16-2-1" />
    </clipPath>
    <clipPath
       clipPathUnits="userSpaceOnUse"
       id="clipPath18-8">
      <path
         d="M 0,595.28 H 841.89 V 0 H 0 Z"
         transform="translate(-535.77731,-300.00141)"
         id="path18-4-9" />
    </clipPath>
  </defs>
  <g
     inkscape:label="Layer 1"
     inkscape:groupmode="layer"
     id="layer1"
     transform="translate(-26.987493,-80.975965)">
    <g
       id="g105"
       transform="matrix(1.26404,0,0,1.26404,-34.379646,-132.0281)"
       style="display:inline;stroke-width:0.556254">
      <g
         id="g106"
         transform="matrix(0.29822515,0,0,0.29822515,5.3639445,120.55094)"
         style="stroke-width:0.556254">
        <path
           id="path5-6"
           d="m 0,0 c -0.003,0.267 -0.02,6.607 7.057,13.435 6.565,6.332 20.681,16.026 50.542,17.783 -15.681,0.003 -52.073,0.05 -76.821,-0.004 -1.114,-0.003 -3.021,0.146 -5.108,-1.179 -1.657,-1.046 -2.572,-2.838 -2.699,-5.676 -0.057,-1.29 -0.297,-19.269 -0.297,-19.269 0,0 -8.033,4.204 -10.992,5.326 -11.023,4.177 -18.28,-4.047 -28.339,-7.783 0.281,-0.067 18.162,-2.118 25.724,-16.091 3.891,-7.191 6.987,-13.438 8.846,-16.532 h 55.896 c -2.213,0.736 -7.049,2.593 -11.765,6.053 C 3.71,-17.824 -0.342,-9.804 0,0"
           style="fill:#878787;fill-opacity:1;fill-rule:nonzero;stroke:none;stroke-width:0.556254"
           transform="matrix(0.3527768,0,0,-0.3527768,188.09177,171.83744)"
           clip-path="url(#clipPath6-4)" />
        <path
           id="path7-2-0"
           d="M 0,0 0.001,-15.094 H -15.343 V 0 c 0,4.878 3.083,8.157 7.671,8.157 C -3.083,8.157 0,4.878 0,0 m -7.672,14.279 c -8.245,0 -14.002,-5.944 -14.002,-14.454 v -42.644 c 0,-1.737 1.42,-3.149 3.165,-3.149 1.746,0 3.166,1.412 3.166,3.149 v 21.465 h 15.28 L 0,-42.819 c 0,-1.737 1.42,-3.149 3.166,-3.149 1.745,0 3.166,1.412 3.166,3.149 v 42.644 c 0,8.51 -5.759,14.454 -14.004,14.454"
           style="fill:#0e1f30;fill-opacity:1;fill-rule:nonzero;stroke:none;stroke-width:0.556254"
           transform="matrix(0.3527768,0,0,-0.3527768,173.18784,201.38045)"
           clip-path="url(#clipPath8-3)" />
        <path
           id="path9-2"
           d="m 0,0 c -1.834,0 -3.326,-1.476 -3.326,-3.29 v -22.849 h -0.036 v -6.385 l 0.036,-0.16 v -13.2 c 0,-4.758 -3.019,-7.955 -7.511,-7.955 -4.493,0 -7.511,3.197 -7.511,7.955 v 13.2 h 0.094 v 6.386 l -0.03,0.159 -0.064,22.849 c 0,1.814 -1.492,3.29 -3.326,3.29 -1.835,0 -3.327,-1.476 -3.327,-3.29 v -42.421 c 0,-8.559 5.824,-14.536 14.164,-14.536 8.338,0 14.163,5.977 14.163,14.536 V -3.29 C 3.326,-1.476 1.834,0 0,0"
           style="fill:#0e1f30;fill-opacity:1;fill-rule:nonzero;stroke:none;stroke-width:0.556254"
           transform="matrix(0.3527768,0,0,-0.3527768,204.94653,196.34304)"
           clip-path="url(#clipPath10-2)" />
        <path
           id="path11-7-4"
           d="m 0,0 -0.009,0.003 c -1.392,0.338 -2.845,-0.286 -3.533,-1.531 l -15.687,-28.493 -15.688,28.493 c -0.684,1.242 -2.132,1.866 -3.541,1.528 -1.39,-0.363 -2.36,-1.614 -2.36,-3.05 v -53.955 c 0,-1.737 1.412,-3.148 3.146,-3.148 1.735,0 3.147,1.411 3.147,3.148 v 41.714 l 12.533,-22.765 0.16,-0.212 c 0.138,-0.209 0.292,-0.369 0.406,-0.483 0.126,-0.126 0.282,-0.273 0.419,-0.356 l 0.261,-0.2 c 0.142,-0.08 0.269,-0.108 0.32,-0.114 0.215,-0.089 0.405,-0.15 0.612,-0.19 0.393,-0.072 0.768,-0.072 1.167,0 0.206,0.04 0.406,0.101 0.59,0.177 0.074,0.019 0.209,0.047 0.349,0.127 l 0.18,0.145 c 0.201,0.129 0.36,0.276 0.498,0.415 0.127,0.126 0.275,0.282 0.356,0.418 l 12.741,23.038 v -41.714 c 0,-1.737 1.412,-3.148 3.146,-3.148 1.735,0 3.147,1.411 3.147,3.148 V -3.05 C 2.36,-1.614 1.389,-0.363 0,0"
           style="fill:#0e1f30;fill-opacity:1;fill-rule:nonzero;stroke:none;stroke-width:0.556254"
           transform="matrix(0.3527768,0,0,-0.3527768,159.20457,196.3761)"
           clip-path="url(#clipPath12-6)" />
        <path
           id="path13-8"
           d="m 0,0 h -0.563 v 2.342 20.595 h 7.51 c 4.75,0 8.067,-3.526 8.067,-8.575 V 8.574 C 15.014,3.525 11.697,0 6.947,0 H 6.566 Z m 21.637,14.938 c -0.338,8.534 -6.272,14.435 -14.69,14.435 h -10.56 c -2.023,0 -3.608,-1.574 -3.608,-3.586 v -23.445 -5.193 -8.596 -15.841 -0.295 c 0,-1.816 1.485,-3.291 3.308,-3.291 1.825,0 3.309,1.475 3.309,3.291 l 0.041,21.146 H 0 6.566 c 4.75,0 8.067,-3.525 8.067,-8.574 l 0.038,-12.572 c 0,-1.816 1.485,-3.291 3.309,-3.291 1.824,0 3.309,1.475 3.309,3.291 v 12.386 c 0,4.987 -1.885,9.133 -5.051,11.828 3.392,2.682 5.431,6.949 5.431,12.13 v 2.202 3.213 0.753 c -0.011,0.002 -0.02,0.008 -0.032,0.009"
           style="fill:#0e1f30;fill-opacity:1;fill-rule:nonzero;stroke:none;stroke-width:0.556254"
           transform="matrix(0.3527768,0,0,-0.3527768,183.47435,206.70516)"
           clip-path="url(#clipPath14-5)" />
        <path
           id="path15-6"
           d="m 0,0 c -0.622,0.943 -1.665,1.484 -2.86,1.484 h -24.542 c -1.675,0 -3.09,-1.393 -3.09,-3.045 0,-1.651 1.415,-3.046 3.09,-3.046 h 20.135 l -23.921,-49.368 c -0.479,-1.061 -0.376,-2.327 0.268,-3.303 0.621,-0.944 1.664,-1.485 2.859,-1.485 h 24.542 c 1.675,0 3.089,1.396 3.089,3.047 0,1.651 -1.414,3.045 -3.089,3.045 H -23.746 L 0.267,-3.303 C 0.745,-2.242 0.643,-0.977 0,0"
           style="fill:#0e1f30;fill-opacity:1;fill-rule:nonzero;stroke:none;stroke-width:0.556254"
           transform="matrix(0.3527768,0,0,-0.3527768,220.81165,196.86667)"
           clip-path="url(#clipPath16-6)" />
        <path
           id="path17-5"
           d="M 0,0 C -1.844,0 -3.344,-1.456 -3.344,-3.247 V -57 c 0,-1.791 1.5,-3.247 3.344,-3.247 1.843,0 3.344,1.456 3.344,3.247 V -3.247 C 3.344,-1.456 1.843,0 0,0"
           style="fill:#0e1f30;fill-opacity:1;fill-rule:nonzero;stroke:none;stroke-width:0.556254"
           transform="matrix(0.3527768,0,0,-0.3527768,227.00418,196.34304)"
           clip-path="url(#clipPath18-8)" />
      </g>
    </g>
  </g>
</svg>
