<?xml version="1.0" encoding="UTF-8" standalone="no"?>
<!-- Created with Inkscape (http://www.inkscape.org/) -->

<svg
   width="12"
   height="12"
   viewBox="0 0 3.175 3.1750001"
   version="1.1"
   id="svg1"
   sodipodi:docname="movde-payment-icon.svg"
   inkscape:version="1.4 (86a8ad7, 2024-10-11)"
   xmlns:inkscape="http://www.inkscape.org/namespaces/inkscape"
   xmlns:sodipodi="http://sodipodi.sourceforge.net/DTD/sodipodi-0.dtd"
   xmlns="http://www.w3.org/2000/svg"
   xmlns:svg="http://www.w3.org/2000/svg">
  <sodipodi:namedview
     id="namedview1"
     pagecolor="#ffffff"
     bordercolor="#000000"
     borderopacity="0.25"
     inkscape:showpageshadow="2"
     inkscape:pageopacity="0.0"
     inkscape:pagecheckerboard="0"
     inkscape:deskcolor="#d1d1d1"
     inkscape:document-units="px"
     inkscape:zoom="12.205488"
     inkscape:cx="14.993255"
     inkscape:cy="7.9882099"
     inkscape:window-width="1584"
     inkscape:window-height="861"
     inkscape:window-x="0"
     inkscape:window-y="0"
     inkscape:window-maximized="0"
     inkscape:current-layer="layer1" />
  <defs
     id="defs1" />
  <g
     inkscape:label="Layer 1"
     inkscape:groupmode="layer"
     id="layer1"
     transform="translate(-80.217195,-183.98722)">
    <g
       style="display:inline;fill:#808080;fill-opacity:1"
       id="g55"
       transform="matrix(0.00396875,0,0,0.00396875,79.899695,187.47972)">
      <path
         d="m 480,-80 q -24,0 -46,-9 -22,-9 -39,-26 -29,-29 -50,-38 -21,-9 -63,-9 -50,0 -85,-35 -35,-35 -35,-85 0,-42 -9,-63 -9,-21 -38,-50 -17,-17 -26,-39 -9,-22 -9,-46 0,-24 9,-46 9,-22 26,-39 29,-29 38,-50 9,-21 9,-63 0,-50 35,-85 35,-35 85,-35 42,0 63,-9 21,-9 50,-38 17,-17 39,-26 22,-9 46,-9 24,0 46,9 22,9 39,26 29,29 50,38 21,9 63,9 50,0 85,35 35,35 35,85 0,42 9,63 9,21 38,50 17,17 26,39 9,22 9,46 0,24 -9,46 -9,22 -26,39 -29,29 -38,50 -9,21 -9,63 0,50 -35,85 -35,35 -85,35 -42,0 -63,9 -21,9 -50,38 -17,17 -39,26 -22,9 -46,9 z m 0,-80 q 8,0 15.5,-3.5 7.5,-3.5 12.5,-8.5 41,-41 77,-55.5 36,-14.5 93,-14.5 17,0 28.5,-11.5 11.5,-11.5 11.5,-28.5 0,-58 14.5,-93.5 14.5,-35.5 55.5,-76.5 12,-12 12,-28 0,-16 -12,-28 -41,-41 -55.5,-77 -14.5,-36 -14.5,-93 0,-17 -11.5,-28.5 Q 695,-718 678,-718 620,-718 584.5,-732.5 549,-747 508,-788 q -5,-5 -12.5,-8.5 -7.5,-3.5 -15.5,-3.5 -8,0 -15.5,3.5 -7.5,3.5 -12.5,8.5 -41,41 -77,55.5 -36,14.5 -93,14.5 -17,0 -28.5,11.5 -11.5,11.5 -11.5,28.5 0,58 -14.5,93.5 -14.5,35.5 -55.5,76.5 -12,12 -12,28 0,16 12,28 41,41 55.5,77 14.5,36 14.5,93 0,17 11.5,28.5 11.5,11.5 28.5,11.5 58,0 93.5,14.5 35.5,14.5 76.5,55.5 5,5 12.5,8.5 7.5,3.5 15.5,3.5 z m 100,-160 q 25,0 42.5,-17.5 Q 640,-355 640,-380 640,-405 622.5,-422.5 605,-440 580,-440 q -25,0 -42.5,17.5 -17.5,17.5 -17.5,42.5 0,25 17.5,42.5 17.5,17.5 42.5,17.5 z m -202,-2 260,-260 -56,-56 -260,260 z m 2,-198 q 25,0 42.5,-17.5 Q 440,-555 440,-580 440,-605 422.5,-622.5 405,-640 380,-640 q -25,0 -42.5,17.5 -17.5,17.5 -17.5,42.5 0,25 17.5,42.5 17.5,17.5 42.5,17.5 z m 100,40 z"
         id="path1-138"
         style="fill:#808080;fill-opacity:1" />
    </g>
  </g>
</svg>
