<?xml version="1.0" encoding="UTF-8" standalone="no"?>
<!-- Created with Inkscape (http://www.inkscape.org/) -->

<svg
   width="9.9999886"
   height="9.9999886"
   viewBox="0 0 2.6458303 2.6458304"
   version="1.1"
   id="svg1"
   sodipodi:docname="movip-payment-icon.svg"
   inkscape:version="1.4 (86a8ad7, 2024-10-11)"
   xmlns:inkscape="http://www.inkscape.org/namespaces/inkscape"
   xmlns:sodipodi="http://sodipodi.sourceforge.net/DTD/sodipodi-0.dtd"
   xmlns="http://www.w3.org/2000/svg"
   xmlns:svg="http://www.w3.org/2000/svg">
  <sodipodi:namedview
     id="namedview1"
     pagecolor="#ffffff"
     bordercolor="#000000"
     borderopacity="0.25"
     inkscape:showpageshadow="2"
     inkscape:pageopacity="0.0"
     inkscape:pagecheckerboard="0"
     inkscape:deskcolor="#d1d1d1"
     inkscape:document-units="px"
     inkscape:zoom="12.205488"
     inkscape:cx="3.1133536"
     inkscape:cy="7.086976"
     inkscape:window-width="1584"
     inkscape:window-height="861"
     inkscape:window-x="0"
     inkscape:window-y="0"
     inkscape:window-maximized="0"
     inkscape:current-layer="layer1" />
  <defs
     id="defs1" />
  <g
     inkscape:label="Layer 1"
     inkscape:groupmode="layer"
     id="layer1"
     transform="translate(-80.481781,-184.25181)">
    <g
       style="display:inline;fill:#808080;fill-opacity:1;stroke:none"
       id="g185"
       transform="matrix(0.00413411,0,0,0.00413411,79.820323,187.5591)">
      <path
         d="m 300,-520 q -58,0 -99,-41 -41,-41 -41,-99 0,-58 41,-99 41,-41 99,-41 58,0 99,41 41,41 41,99 0,58 -41,99 -41,41 -99,41 z m 0,-80 q 25,0 42.5,-17.5 Q 360,-635 360,-660 360,-685 342.5,-702.5 325,-720 300,-720 q -25,0 -42.5,17.5 -17.5,17.5 -17.5,42.5 0,25 17.5,42.5 17.5,17.5 42.5,17.5 z m 360,440 q -58,0 -99,-41 -41,-41 -41,-99 0,-58 41,-99 41,-41 99,-41 58,0 99,41 41,41 41,99 0,58 -41,99 -41,41 -99,41 z m 0,-80 q 25,0 42.5,-17.5 Q 720,-275 720,-300 720,-325 702.5,-342.5 685,-360 660,-360 q -25,0 -42.5,17.5 -17.5,17.5 -17.5,42.5 0,25 17.5,42.5 17.5,17.5 42.5,17.5 z m -444,80 -56,-56 584,-584 56,56 z"
         id="path1-9"
         style="fill:#808080;fill-opacity:1;stroke:none" />
    </g>
  </g>
</svg>
