<?xml version="1.0" encoding="UTF-8" standalone="no"?>
<!-- Created with Inkscape (http://www.inkscape.org/) -->

<svg
   width="16"
   height="16"
   viewBox="0 0 4.2333334 4.2333332"
   version="1.1"
   id="svg1"
   inkscape:version="1.4 (86a8ad7, 2024-10-11)"
   sodipodi:docname="order-icon-gray.svg"
   xmlns:inkscape="http://www.inkscape.org/namespaces/inkscape"
   xmlns:sodipodi="http://sodipodi.sourceforge.net/DTD/sodipodi-0.dtd"
   xmlns="http://www.w3.org/2000/svg"
   xmlns:svg="http://www.w3.org/2000/svg">
  <sodipodi:namedview
     id="namedview1"
     pagecolor="#ffffff"
     bordercolor="#000000"
     borderopacity="0.25"
     inkscape:showpageshadow="2"
     inkscape:pageopacity="0.0"
     inkscape:pagecheckerboard="0"
     inkscape:deskcolor="#d1d1d1"
     inkscape:document-units="px"
     inkscape:zoom="17.261167"
     inkscape:cx="21.580232"
     inkscape:cy="-8.5451927"
     inkscape:window-width="3440"
     inkscape:window-height="1369"
     inkscape:window-x="1592"
     inkscape:window-y="-8"
     inkscape:window-maximized="1"
     inkscape:current-layer="layer1" />
  <defs
     id="defs1" />
  <g
     inkscape:label="Layer 1"
     inkscape:groupmode="layer"
     id="layer1"
     transform="translate(-103.45208,-146.84375)">
    <path
       d="m 104.33402,150.81251 q -0.14552,0 -0.24915,-0.10363 -0.10363,-0.10363 -0.10363,-0.24915 v -2.11668 q 0,-0.14552 0.10363,-0.24915 0.10363,-0.10362 0.24915,-0.10362 h 0.35278 q 0,-0.36601 0.25797,-0.62398 0.25797,-0.25797 0.62398,-0.25797 0.36601,0 0.62398,0.25797 0.25797,0.25797 0.25797,0.62398 h 0.35278 q 0.14552,0 0.24914,0.10362 0.10363,0.10363 0.10363,0.24915 v 2.11668 q 0,0.14552 -0.10363,0.24915 -0.10362,0.10363 -0.24914,0.10363 z m 0,-0.35278 h 2.46946 v -2.11668 h -2.46946 z m 1.23473,-1.05834 q 0.36601,0 0.62398,-0.25797 0.25797,-0.25797 0.25797,-0.62398 h -0.35278 q 0,0.22049 -0.15434,0.37483 -0.15435,0.15434 -0.37483,0.15434 -0.22049,0 -0.37483,-0.15434 -0.15434,-0.15434 -0.15434,-0.37483 h -0.35278 q 0,0.36601 0.25797,0.62398 0.25797,0.25797 0.62398,0.25797 z m -0.52917,-1.41111 h 1.05834 q 0,-0.22049 -0.15434,-0.37483 -0.15435,-0.15434 -0.37483,-0.15434 -0.22049,0 -0.37483,0.15434 -0.15434,0.15434 -0.15434,0.37483 z m -0.70556,2.46945 v -2.11668 z"
       id="path1-7"
       style="fill:#808080;fill-opacity:1;stroke:none;stroke-width:0.00440974" />
  </g>
</svg>
