<?xml version="1.0" encoding="UTF-8" standalone="no"?>
<!-- Created with Inkscape (http://www.inkscape.org/) -->

<svg
   width="5.291667mm"
   height="5.291667mm"
   viewBox="0 0 5.291667 5.291667"
   version="1.1"
   id="svg1"
   inkscape:version="1.4 (86a8ad7, 2024-10-11)"
   sodipodi:docname="plus-icon.svg"
   xmlns:inkscape="http://www.inkscape.org/namespaces/inkscape"
   xmlns:sodipodi="http://sodipodi.sourceforge.net/DTD/sodipodi-0.dtd"
   xmlns="http://www.w3.org/2000/svg"
   xmlns:svg="http://www.w3.org/2000/svg">
  <sodipodi:namedview
     id="namedview1"
     pagecolor="#ffffff"
     bordercolor="#000000"
     borderopacity="0.25"
     inkscape:showpageshadow="2"
     inkscape:pageopacity="0.0"
     inkscape:pagecheckerboard="0"
     inkscape:deskcolor="#d1d1d1"
     inkscape:document-units="mm"
     inkscape:zoom="17.261167"
     inkscape:cx="23.231338"
     inkscape:cy="3.910512"
     inkscape:window-width="3440"
     inkscape:window-height="1369"
     inkscape:window-x="1592"
     inkscape:window-y="-8"
     inkscape:window-maximized="1"
     inkscape:current-layer="g64" />
  <defs
     id="defs1" />
  <g
     inkscape:label="Layer 1"
     inkscape:groupmode="layer"
     id="layer1"
     transform="translate(-102.12917,-145.78542)">
    <g
       id="g64"
       transform="matrix(1.093023,0,0,1.093023,71.891067,15.068641)"
       style="display:inline;fill:#f9f9f9">
      <path
         id="rect63"
         style="fill:#4d4d4d;fill-opacity:1;stroke:none;stroke-width:1.32291;stroke-dasharray:5.29165, 2.64583, 1.32291, 2.64583"
         d="M 30.08531 119.59197 C 28.744267 119.59197 27.664654 120.67159 27.664654 122.01263 C 27.664654 123.35368 28.744267 124.43329 30.08531 124.43329 C 31.426354 124.43329 32.505967 123.35368 32.505967 122.01263 C 32.505967 120.67159 31.426354 119.59197 30.08531 119.59197 z M 29.894778 120.67938 L 30.275843 120.67938 L 30.275843 121.8221 L 31.418563 121.8221 L 31.418563 122.20316 L 30.275843 122.20316 L 30.275843 123.34588 L 29.894778 123.34588 L 29.894778 122.20316 L 28.752058 122.20316 L 28.752058 121.8221 L 29.894778 121.8221 L 29.894778 120.67938 z " />
    </g>
  </g>
</svg>
