<?xml version="1.0" encoding="UTF-8" standalone="no"?>
<!-- Created with Inkscape (http://www.inkscape.org/) -->

<svg
   width="16"
   height="16"
   viewBox="0 0 4.2333334 4.2333332"
   version="1.1"
   id="svg1"
   inkscape:version="1.4 (86a8ad7, 2024-10-11)"
   sodipodi:docname="stock-icon-gray.svg"
   xmlns:inkscape="http://www.inkscape.org/namespaces/inkscape"
   xmlns:sodipodi="http://sodipodi.sourceforge.net/DTD/sodipodi-0.dtd"
   xmlns="http://www.w3.org/2000/svg"
   xmlns:svg="http://www.w3.org/2000/svg">
  <sodipodi:namedview
     id="namedview1"
     pagecolor="#ffffff"
     bordercolor="#000000"
     borderopacity="0.25"
     inkscape:showpageshadow="2"
     inkscape:pageopacity="0.0"
     inkscape:pagecheckerboard="0"
     inkscape:deskcolor="#d1d1d1"
     inkscape:document-units="px"
     inkscape:zoom="17.261167"
     inkscape:cx="18.393889"
     inkscape:cy="-7.6182565"
     inkscape:window-width="3440"
     inkscape:window-height="1369"
     inkscape:window-x="1592"
     inkscape:window-y="-8"
     inkscape:window-maximized="1"
     inkscape:current-layer="layer1" />
  <defs
     id="defs1" />
  <g
     inkscape:label="Layer 1"
     inkscape:groupmode="layer"
     id="layer1"
     transform="translate(-103.45208,-146.84375)">
    <path
       d="m 106.9093,150.54794 -1.11126,-1.11125 q -0.13229,0.10583 -0.30427,0.16757 -0.17198,0.0617 -0.36601,0.0617 -0.48066,0 -0.8136,-0.33293 -0.33293,-0.33294 -0.33293,-0.8136 0,-0.48066 0.33293,-0.8136 0.33294,-0.33293 0.8136,-0.33293 0.48066,0 0.8136,0.33293 0.33293,0.33294 0.33293,0.8136 0,0.19403 -0.0617,0.36601 -0.0617,0.17198 -0.16757,0.30427 l 1.11125,1.11126 z m -1.78154,-1.23473 q 0.33073,0 0.56224,-0.23151 0.23151,-0.23151 0.23151,-0.56224 0,-0.33073 -0.23151,-0.56224 -0.23151,-0.23151 -0.56224,-0.23151 -0.33073,0 -0.56224,0.23151 -0.23151,0.23151 -0.23151,0.56224 0,0.33073 0.23151,0.56224 0.23151,0.23151 0.56224,0.23151 z"
       id="path1-4"
       style="fill:#808080;fill-opacity:1;stroke:none;stroke-width:0.00440974" />
  </g>
</svg>
