<?xml version="1.0" encoding="UTF-8" standalone="no"?>
<!-- Created with Inkscape (http://www.inkscape.org/) -->

<svg
   width="16"
   height="16"
   viewBox="0 0 4.2333334 4.2333332"
   version="1.1"
   id="svg1"
   inkscape:version="1.4 (86a8ad7, 2024-10-11)"
   sodipodi:docname="swap-icon-blue.svg"
   xmlns:inkscape="http://www.inkscape.org/namespaces/inkscape"
   xmlns:sodipodi="http://sodipodi.sourceforge.net/DTD/sodipodi-0.dtd"
   xmlns="http://www.w3.org/2000/svg"
   xmlns:svg="http://www.w3.org/2000/svg">
  <sodipodi:namedview
     id="namedview1"
     pagecolor="#ffffff"
     bordercolor="#000000"
     borderopacity="0.25"
     inkscape:showpageshadow="2"
     inkscape:pageopacity="0.0"
     inkscape:pagecheckerboard="0"
     inkscape:deskcolor="#d1d1d1"
     inkscape:document-units="px"
     inkscape:zoom="17.261167"
     inkscape:cx="21.985767"
     inkscape:cy="-8.1975916"
     inkscape:window-width="3440"
     inkscape:window-height="1369"
     inkscape:window-x="1592"
     inkscape:window-y="-8"
     inkscape:window-maximized="1"
     inkscape:current-layer="layer1" />
  <defs
     id="defs1" />
  <g
     inkscape:label="Layer 1"
     inkscape:groupmode="layer"
     id="layer1"
     transform="translate(-103.45208,-146.84375)">
    <path
       d="m 105.57756,150.19514 0.50272,-0.4983 -0.50272,-0.4983 -0.1852,0.18521 0.18961,0.18962 q -0.12347,0.004 -0.24033,-0.0397 -0.11685,-0.0441 -0.20946,-0.1367 -0.0882,-0.0882 -0.1345,-0.20285 -0.0463,-0.11465 -0.0463,-0.22931 0,-0.075 0.0199,-0.14993 0.0198,-0.075 0.0551,-0.14552 l -0.19403,-0.19403 q -0.075,0.11025 -0.11024,0.23372 -0.0353,0.12347 -0.0353,0.25135 0,0.16757 0.0661,0.33074 0.0662,0.16316 0.19403,0.29104 0.12788,0.12788 0.28663,0.19182 0.15876,0.0639 0.32633,0.0684 l -0.16757,0.16757 z m 0.72761,-0.74965 q 0.075,-0.11025 0.11025,-0.23372 0.0353,-0.12347 0.0353,-0.25136 0,-0.16757 -0.0639,-0.33293 -0.0639,-0.16537 -0.19182,-0.29325 -0.12788,-0.12788 -0.28884,-0.18962 -0.16096,-0.0617 -0.32853,-0.0617 l 0.16757,-0.17198 -0.1852,-0.18521 -0.50271,0.4983 0.50271,0.4983 0.1852,-0.18521 -0.19402,-0.19403 q 0.11906,0 0.24253,0.0463 0.12347,0.0463 0.21167,0.1345 0.0882,0.0882 0.1345,0.20285 0.0463,0.11465 0.0463,0.22931 0,0.075 -0.0198,0.14993 -0.0198,0.075 -0.0551,0.14552 z m -0.73642,1.27882 q -0.36601,0 -0.68792,-0.13891 -0.32192,-0.1389 -0.56004,-0.37703 -0.23813,-0.23812 -0.37703,-0.56004 -0.13891,-0.32191 -0.13891,-0.68792 0,-0.366 0.13891,-0.68791 0.1389,-0.32192 0.37703,-0.56004 0.23812,-0.23813 0.56004,-0.37703 0.32191,-0.13891 0.68792,-0.13891 0.366,0 0.68791,0.13891 0.32192,0.1389 0.56004,0.37703 0.23813,0.23812 0.37703,0.56004 0.13891,0.32191 0.13891,0.68791 0,0.36601 -0.13891,0.68792 -0.1389,0.32192 -0.37703,0.56004 -0.23812,0.23813 -0.56004,0.37703 -0.32191,0.13891 -0.68791,0.13891 z m 0,-0.35278 q 0.5909,0 1.00101,-0.4101 0.4101,-0.41011 0.4101,-1.00102 0,-0.5909 -0.4101,-1.00101 -0.41011,-0.4101 -1.00101,-0.4101 -0.59091,0 -1.00102,0.4101 -0.4101,0.41011 -0.4101,1.00101 0,0.59091 0.4101,1.00102 0.41011,0.4101 1.00102,0.4101 z m 0,-1.41112 z"
       id="path4"
       style="fill:#142d85;fill-opacity:1;stroke:none;stroke-width:0.00440974" />
  </g>
</svg>
