<?xml version="1.0" encoding="UTF-8" standalone="no"?>
<svg
   height="24px"
   viewBox="0 -960 960 960"
   width="24px"
   fill="#1f1f1f"
   version="1.1"
   id="svg1"
   sodipodi:docname="reset.svg"
   inkscape:version="1.4 (86a8ad7, 2024-10-11)"
   xmlns:inkscape="http://www.inkscape.org/namespaces/inkscape"
   xmlns:sodipodi="http://sodipodi.sourceforge.net/DTD/sodipodi-0.dtd"
   xmlns="http://www.w3.org/2000/svg"
   xmlns:svg="http://www.w3.org/2000/svg">
  <defs
     id="defs1" />
  <sodipodi:namedview
     id="namedview1"
     pagecolor="#ffffff"
     bordercolor="#000000"
     borderopacity="0.25"
     inkscape:showpageshadow="2"
     inkscape:pageopacity="0.0"
     inkscape:pagecheckerboard="0"
     inkscape:deskcolor="#d1d1d1"
     inkscape:zoom="33.625"
     inkscape:cx="12"
     inkscape:cy="12"
     inkscape:window-width="1920"
     inkscape:window-height="1009"
     inkscape:window-x="1912"
     inkscape:window-y="-8"
     inkscape:window-maximized="1"
     inkscape:current-layer="svg1" />
  <path
     d="M160-120v-80h94q-62-50-98-122.5T120-480q0-75 28.5-140.5t77-114q48.5-48.5 114-77T480-840q129 0 226.5 79.5T831-560h-83q-26-88-99-144t-169-56q-117 0-198.5 81.5T200-480q0 72 32.5 132t87.5 98v-110h80v240H160Zm380 40q-25 0-42.5-17.5T480-140v-280q0-25 17.5-42.5T540-480h280q25 0 42.5 17.5T880-420v280q0 25-17.5 42.5T820-80H540Zm20-80h240v-240L560-160Z"
     id="path1"
     style="fill:#f9f9f9" />
</svg>
